<?xml version="1.0" standalone="no"?>
<!DOCTYPE svg PUBLIC "-//W3C//DTD SVG 20010904//EN"
 "http://www.w3.org/TR/2001/REC-SVG-20010904/DTD/svg10.dtd">
<svg version="1.0" xmlns="http://www.w3.org/2000/svg"
 width="512.000000pt" height="512.000000pt" viewBox="0 0 512.000000 512.000000"
 preserveAspectRatio="xMidYMid meet">
<metadata>
Created by potrace 1.14, written by Peter Selinger 2001-2017
</metadata>
<g transform="translate(0.000000,512.000000) scale(0.100000,-0.100000)"
fill="#000000" stroke="none">
<path d="M1389 3650 c-301 -48 -473 -288 -456 -635 11 -231 103 -399 295 -541
156 -116 184 -139 238 -191 71 -70 106 -139 112 -223 6 -93 -11 -146 -63 -197
-34 -32 -56 -44 -99 -53 -117 -24 -325 33 -473 131 l-33 21 0 -200 0 -199 61
-27 c113 -49 204 -68 355 -73 171 -7 257 6 354 53 126 60 225 178 264 314 39
137 38 338 -4 472 -40 130 -155 268 -316 377 -121 83 -197 147 -236 199 -86
113 -88 279 -4 370 72 80 226 73 394 -18 30 -16 56 -29 57 -27 10 16 125 305
125 313 0 17 -167 91 -255 113 -95 24 -238 33 -316 21z"/>
<path d="M2240 2555 l0 -1075 183 2 182 3 0 820 c0 596 -3 844 -12 909 -12 81
-11 107 1 95 3 -2 96 -414 208 -914 l203 -910 217 -3 216 -2 20 87 c11 49 102
458 203 911 100 452 187 822 192 822 5 0 6 -7 1 -17 -5 -10 -10 -420 -12 -911
l-3 -892 188 2 188 3 0 1070 0 1070 -304 3 c-168 1 -308 -1 -312 -5 -4 -5 -87
-375 -184 -823 -96 -448 -179 -826 -184 -840 -7 -23 -8 -24 -14 -5 -3 11 -83
376 -177 810 -94 435 -176 807 -181 828 l-10 37 -304 0 -305 0 0 -1075z"/>
</g>
</svg>
